<svg xmlns="http://www.w3.org/2000/svg" viewBox="0 0 1600 900" preserveAspectRatio="xMidYMid slice" role="img" aria-label="Stylized illustration of the Douro valley at golden hour">
  <defs>
    <linearGradient id="sky" x1="0" y1="0" x2="0" y2="1">
      <stop offset="0" stop-color="#2f4a67"/>
      <stop offset="0.42" stop-color="#5a6a82"/>
      <stop offset="0.66" stop-color="#a9836f"/>
      <stop offset="0.83" stop-color="#e0ac7e"/>
      <stop offset="1" stop-color="#f2cf9c"/>
    </linearGradient>
    <radialGradient id="sun" cx="0.66" cy="0.64" r="0.32">
      <stop offset="0" stop-color="#ffe9c2" stop-opacity="0.95"/>
      <stop offset="0.5" stop-color="#f6c98a" stop-opacity="0.35"/>
      <stop offset="1" stop-color="#f6c98a" stop-opacity="0"/>
    </radialGradient>
    <linearGradient id="river" x1="0" y1="0" x2="0" y2="1">
      <stop offset="0" stop-color="#f4dcae"/>
      <stop offset="0.5" stop-color="#e9c993"/>
      <stop offset="1" stop-color="#d8b481"/>
    </linearGradient>
  </defs>

  <rect width="1600" height="900" fill="url(#sky)"/>
  <ellipse cx="1056" cy="576" rx="520" ry="360" fill="url(#sun)"/>
  <circle cx="1056" cy="558" r="46" fill="#ffedcb" opacity="0.9"/>

  <path d="M0 566 C 260 512, 470 552, 720 526 C 980 500, 1200 560, 1600 520 L1600 900 L0 900 Z" fill="#93a390" opacity="0.85"/>
  <path d="M0 636 C 300 588, 540 632, 800 602 C 1080 570, 1320 648, 1600 606 L1600 900 L0 900 Z" fill="#728a67"/>
  <path d="M0 706 C 220 646, 430 686, 660 764 L 720 900 L0 900 Z" fill="#52694a"/>
  <path d="M1600 694 C 1400 632, 1170 684, 936 772 L 900 900 L1600 900 Z" fill="#44603f"/>

  <path d="M792 560 C 772 636, 828 700, 800 772 C 776 834, 704 862, 732 900 L 980 900 C 1006 852, 902 812, 902 758 C 902 700, 832 640, 814 560 Z" fill="url(#river)" opacity="0.92"/>

  <g stroke="#ffffff" stroke-opacity="0.10" fill="none" stroke-width="2">
    <path d="M30 744 C 210 690, 400 724, 600 800"/>
    <path d="M20 786 C 220 730, 430 766, 650 848"/>
    <path d="M60 700 C 220 654, 400 684, 590 750"/>
  </g>
  <g stroke="#ffffff" stroke-opacity="0.09" fill="none" stroke-width="2">
    <path d="M1010 792 C 1210 726, 1400 748, 1580 704"/>
    <path d="M1060 836 C 1250 768, 1430 786, 1590 748"/>
  </g>
</svg>
